<svg width="1912" height="234" viewBox="0 0 1912 234" fill="none" xmlns="http://www.w3.org/2000/svg">
<path opacity="0.06" d="M56.9085 19.155C45.1485 25.245 35.2785 33.54 27.2985 44.04C19.5285 54.33 13.6485 65.67 9.65854 78.06C5.87854 90.45 3.98854 103.47 3.98854 117.12C3.98854 130.56 5.87854 143.58 9.65854 156.18C13.6485 168.57 19.5285 180.015 27.2985 190.515C35.2785 200.805 45.1485 208.995 56.9085 215.085C62.9985 218.445 69.5085 220.965 76.4385 222.645C83.3685 224.115 90.2985 224.85 97.2285 224.85C110.879 224.85 123.899 221.7 136.289 215.4C148.889 208.89 159.179 198.915 167.159 185.475L171.569 186.735C167.369 194.925 162.329 201.96 156.449 207.84C150.569 213.72 144.164 218.55 137.234 222.33C130.304 226.11 123.059 228.84 115.499 230.52C107.939 232.41 100.169 233.355 92.1885 233.355C82.7385 233.355 73.2885 232.095 63.8385 229.575C54.5985 227.265 45.8835 223.905 37.6935 219.495C25.3035 212.985 14.9085 204.375 6.50854 193.665C-1.68146 182.745 -7.87646 170.775 -12.0765 157.755C-16.2765 144.735 -18.3765 131.19 -18.3765 117.12C-18.3765 102.84 -16.2765 89.19 -12.0765 76.17C-7.87646 63.15 -1.68146 51.285 6.50854 40.575C14.9085 29.655 25.3035 20.94 37.6935 14.43C45.8835 10.23 54.4935 6.97499 63.5235 4.66498C72.7635 2.35499 82.1085 1.19999 91.5585 1.19999C99.5385 1.19999 107.309 2.14499 114.869 4.03499C122.639 5.715 129.989 8.44499 136.919 12.225C143.849 15.795 150.254 20.52 156.134 26.4C162.014 32.07 167.159 39 171.569 47.19L167.159 48.45C159.179 35.01 148.994 25.14 136.604 18.84C124.214 12.33 111.194 9.07498 97.5435 9.07498C83.2635 9.07498 69.7185 12.435 56.9085 19.155ZM290.658 228.63C303.678 228.63 315.123 225.48 324.993 219.18C334.863 212.67 343.053 204.165 349.563 193.665C356.283 183.165 361.218 171.195 364.368 157.755C367.728 144.315 369.408 130.665 369.408 116.805C369.408 102.945 367.728 89.295 364.368 75.855C361.218 62.415 356.283 50.55 349.563 40.26C343.053 29.76 334.863 21.36 324.993 15.06C315.123 8.54999 303.678 5.29499 290.658 5.29499C277.638 5.29499 266.193 8.54999 256.323 15.06C246.663 21.36 238.473 29.76 231.753 40.26C225.243 50.55 220.308 62.415 216.948 75.855C213.798 89.295 212.223 102.945 212.223 116.805C212.223 130.665 213.798 144.315 216.948 157.755C220.308 171.195 225.243 183.165 231.753 193.665C238.473 204.165 246.663 212.67 256.323 219.18C266.193 225.48 277.638 228.63 290.658 228.63ZM290.658 1.19999C307.038 1.19999 321.423 4.55999 333.813 11.28C346.203 17.79 356.598 26.505 364.998 37.425C373.398 48.135 379.698 60.42 383.898 74.28C388.308 88.14 390.513 102.315 390.513 116.805C390.513 131.295 388.308 145.47 383.898 159.33C379.698 173.19 373.398 185.58 364.998 196.5C356.598 207.42 346.203 216.24 333.813 222.96C321.423 229.47 307.038 232.725 290.658 232.725C274.488 232.725 260.103 229.47 247.503 222.96C235.113 216.24 224.718 207.42 216.318 196.5C207.918 185.58 201.513 173.19 197.103 159.33C192.903 145.47 190.803 131.295 190.803 116.805C190.803 102.315 192.903 88.14 197.103 74.28C201.513 60.42 207.918 48.135 216.318 37.425C224.718 26.505 235.113 17.79 247.503 11.28C260.103 4.55999 274.488 1.19999 290.658 1.19999ZM412.595 6.23998H445.355L510.875 193.98L578.915 6.23998H598.76V228H578.915V27.975L506.78 228H503.945L432.125 25.77V228H425.195V14.43L412.595 9.07498V6.23998ZM626.389 6.23998H658.834V228H638.989V14.43L626.389 9.07498V6.23998ZM836.615 183.585V5.92499H843.545V227.685H840.71L706.52 16.95V227.685H699.59V14.115L686.99 8.75999V5.92499H723.845L836.615 183.585ZM981.847 1.19999C995.707 2.03999 1008.83 6.13499 1021.22 13.485C1033.82 20.625 1044.22 31.755 1052.41 46.875L1047.68 48.45C1039.7 34.8 1029.73 24.825 1017.76 18.525C1005.79 12.015 993.292 8.75999 980.272 8.75999C965.362 8.96998 952.342 12.225 941.212 18.525C930.292 24.615 921.157 32.805 913.807 43.095C906.667 53.175 901.207 64.725 897.427 77.745C893.857 90.555 892.072 103.68 892.072 117.12C892.282 130.56 894.172 143.79 897.742 156.81C901.312 169.62 906.667 181.065 913.807 191.145C920.947 201.225 929.872 209.415 940.582 215.715C951.292 221.805 963.682 224.85 977.752 224.85C991.192 224.85 1003.16 222.54 1013.66 217.92C1024.37 213.09 1032.67 207.315 1038.55 200.595V121.53L1025.63 116.175V113.655H1057.13V183.585C1055.87 186.525 1054.09 189.57 1051.78 192.72C1049.68 195.66 1047.47 198.6 1045.16 201.54C1044.74 201.96 1044.43 202.38 1044.22 202.8C1044.01 203.01 1043.69 203.325 1043.27 203.745C1043.06 204.165 1042.54 204.795 1041.7 205.635C1032.88 215.085 1022.59 222.015 1010.83 226.425C999.277 230.835 987.202 233.145 974.602 233.355C957.382 233.565 942.157 230.415 928.927 223.905C915.907 217.395 904.987 208.785 896.167 198.075C887.557 187.155 881.047 174.765 876.637 160.905C872.227 146.835 870.022 132.555 870.022 118.065C870.022 103.365 872.122 88.98 876.322 74.91C880.732 60.84 887.242 48.345 895.852 37.425C904.462 26.505 915.277 17.685 928.297 10.965C941.527 4.245 956.857 0.884995 974.287 0.884995C975.547 0.884995 976.807 0.989994 978.067 1.19999C979.327 1.19999 980.587 1.19999 981.847 1.19999ZM1292.77 33.645C1289.62 29.445 1285.95 25.77 1281.75 22.62C1277.55 19.47 1272.93 16.845 1267.89 14.745C1262.85 12.435 1257.49 10.755 1251.82 9.70499C1246.36 8.655 1240.9 8.13 1235.44 8.13C1227.88 8.13 1220.53 9.17999 1213.39 11.28C1206.46 13.38 1200.48 16.74 1195.44 21.36C1189.98 26.4 1186.2 31.755 1184.1 37.425C1182 43.095 1181.37 48.66 1182.21 54.12C1183.26 59.58 1185.67 64.83 1189.45 69.87C1193.23 74.91 1198.06 79.32 1203.94 83.1C1209.19 86.25 1215.39 89.4 1222.53 92.55C1229.67 95.49 1237.12 98.745 1244.89 102.315C1252.87 105.885 1260.64 109.77 1268.2 113.97C1275.97 117.96 1282.9 122.685 1288.99 128.145C1295.08 133.605 1300.02 139.8 1303.8 146.73C1307.58 153.66 1309.47 161.64 1309.47 170.67C1309.47 180.75 1307.47 189.675 1303.48 197.445C1299.7 205.215 1294.56 211.725 1288.05 216.975C1281.54 222.225 1273.98 226.215 1265.37 228.945C1256.76 231.675 1247.73 233.04 1238.28 233.04C1223.37 233.04 1208.77 229.89 1194.49 223.59C1180.42 217.08 1168.24 207.84 1157.95 195.87L1161.73 192.72C1171.39 203.85 1182.94 212.145 1196.38 217.605C1209.82 223.065 1223.79 225.795 1238.28 225.795C1245.42 225.375 1252.24 224.01 1258.75 221.7C1265.26 219.39 1270.93 216.03 1275.76 211.62C1280.8 207.21 1284.69 201.75 1287.42 195.24C1290.36 188.73 1291.62 181.275 1291.2 172.875C1290.99 166.575 1289.1 160.8 1285.53 155.55C1281.96 150.3 1277.34 145.575 1271.67 141.375C1266.21 136.965 1259.91 132.975 1252.77 129.405C1245.84 125.835 1238.8 122.58 1231.66 119.64C1224.52 116.49 1217.59 113.55 1210.87 110.82C1204.15 108.09 1198.38 105.465 1193.55 102.945C1184.73 98.325 1177.48 92.13 1171.81 84.36C1166.35 76.59 1163.52 67.665 1163.31 57.585C1163.31 48.345 1165.3 40.26 1169.29 33.33C1173.28 26.19 1178.53 20.31 1185.04 15.69C1191.55 10.86 1198.8 7.28999 1206.78 4.98C1214.97 2.66999 1223.26 1.51499 1231.66 1.51499C1244.05 1.51499 1256.02 3.92999 1267.57 8.75999C1279.33 13.59 1288.78 20.73 1295.92 30.18L1292.77 33.645ZM1421.46 228.63C1434.48 228.63 1445.92 225.48 1455.79 219.18C1465.66 212.67 1473.85 204.165 1480.36 193.665C1487.08 183.165 1492.02 171.195 1495.17 157.755C1498.53 144.315 1500.21 130.665 1500.21 116.805C1500.21 102.945 1498.53 89.295 1495.17 75.855C1492.02 62.415 1487.08 50.55 1480.36 40.26C1473.85 29.76 1465.66 21.36 1455.79 15.06C1445.92 8.54999 1434.48 5.29499 1421.46 5.29499C1408.44 5.29499 1396.99 8.54999 1387.12 15.06C1377.46 21.36 1369.27 29.76 1362.55 40.26C1356.04 50.55 1351.11 62.415 1347.75 75.855C1344.6 89.295 1343.02 102.945 1343.02 116.805C1343.02 130.665 1344.6 144.315 1347.75 157.755C1351.11 171.195 1356.04 183.165 1362.55 193.665C1369.27 204.165 1377.46 212.67 1387.12 219.18C1396.99 225.48 1408.44 228.63 1421.46 228.63ZM1421.46 1.19999C1437.84 1.19999 1452.22 4.55999 1464.61 11.28C1477 17.79 1487.4 26.505 1495.8 37.425C1504.2 48.135 1510.5 60.42 1514.7 74.28C1519.11 88.14 1521.31 102.315 1521.31 116.805C1521.31 131.295 1519.11 145.47 1514.7 159.33C1510.5 173.19 1504.2 185.58 1495.8 196.5C1487.4 207.42 1477 216.24 1464.61 222.96C1452.22 229.47 1437.84 232.725 1421.46 232.725C1405.29 232.725 1390.9 229.47 1378.3 222.96C1365.91 216.24 1355.52 207.42 1347.12 196.5C1338.72 185.58 1332.31 173.19 1327.9 159.33C1323.7 145.47 1321.6 131.295 1321.6 116.805C1321.6 102.315 1323.7 88.14 1327.9 74.28C1332.31 60.42 1338.72 48.135 1347.12 37.425C1355.52 26.505 1365.91 17.79 1378.3 11.28C1390.9 4.55999 1405.29 1.19999 1421.46 1.19999ZM1643.25 228.63C1656.27 228.63 1667.72 225.48 1677.59 219.18C1687.46 212.67 1695.65 204.165 1702.16 193.665C1708.88 183.165 1713.81 171.195 1716.96 157.755C1720.32 144.315 1722 130.665 1722 116.805C1722 102.945 1720.32 89.295 1716.96 75.855C1713.81 62.415 1708.88 50.55 1702.16 40.26C1695.65 29.76 1687.46 21.36 1677.59 15.06C1667.72 8.54999 1656.27 5.29499 1643.25 5.29499C1630.23 5.29499 1618.79 8.54999 1608.92 15.06C1599.26 21.36 1591.07 29.76 1584.35 40.26C1577.84 50.55 1572.9 62.415 1569.54 75.855C1566.39 89.295 1564.82 102.945 1564.82 116.805C1564.82 130.665 1566.39 144.315 1569.54 157.755C1572.9 171.195 1577.84 183.165 1584.35 193.665C1591.07 204.165 1599.26 212.67 1608.92 219.18C1618.79 225.48 1630.23 228.63 1643.25 228.63ZM1643.25 1.19999C1659.63 1.19999 1674.02 4.55999 1686.41 11.28C1698.8 17.79 1709.19 26.505 1717.59 37.425C1725.99 48.135 1732.29 60.42 1736.49 74.28C1740.9 88.14 1743.11 102.315 1743.11 116.805C1743.11 131.295 1740.9 145.47 1736.49 159.33C1732.29 173.19 1725.99 185.58 1717.59 196.5C1709.19 207.42 1698.8 216.24 1686.41 222.96C1674.02 229.47 1659.63 232.725 1643.25 232.725C1627.08 232.725 1612.7 229.47 1600.1 222.96C1587.71 216.24 1577.31 207.42 1568.91 196.5C1560.51 185.58 1554.11 173.19 1549.7 159.33C1545.5 145.47 1543.4 131.295 1543.4 116.805C1543.4 102.315 1545.5 88.14 1549.7 74.28C1554.11 60.42 1560.51 48.135 1568.91 37.425C1577.31 26.505 1587.71 17.79 1600.1 11.28C1612.7 4.55999 1627.08 1.19999 1643.25 1.19999ZM1904.97 183.585V5.92499H1911.9V227.685H1909.06L1774.87 16.95V227.685H1767.94V14.115L1755.34 8.75999V5.92499H1792.2L1904.97 183.585Z" fill="white"/>
</svg>
